<mxfile host="Electron" modified="2024-03-13T08:35:31.545Z" agent="Mozilla/5.0 (Windows NT 10.0; WOW64) AppleWebKit/537.36 (KHTML, like Gecko) draw.io/22.1.2 Chrome/114.0.5735.289 Electron/25.9.4 Safari/537.36" etag="azLSB5GEqU1F35NK2Q0s" version="22.1.2" type="device">
  <diagram name="Pagina-1" id="zzOEAAlnIyqSUYl8o3s8">
    <mxGraphModel dx="274" dy="477" grid="1" gridSize="10" guides="1" tooltips="1" connect="1" arrows="1" fold="1" page="1" pageScale="1" pageWidth="827" pageHeight="1169" math="0" shadow="0">
      <root>
        <mxCell id="0" />
        <mxCell id="1" parent="0" />
        <mxCell id="OZhFMw3GiyJWH7PU8Zwi-5" value="Orario" style="swimlane;fontStyle=1;align=center;verticalAlign=top;childLayout=stackLayout;horizontal=1;startSize=26;horizontalStack=0;resizeParent=1;resizeParentMax=0;resizeLast=0;collapsible=1;marginBottom=0;whiteSpace=wrap;html=1;" vertex="1" parent="1">
          <mxGeometry x="320" y="240" width="160" height="300" as="geometry">
            <mxRectangle x="320" y="240" width="80" height="30" as="alternateBounds" />
          </mxGeometry>
        </mxCell>
        <mxCell id="OZhFMw3GiyJWH7PU8Zwi-6" value="- o : int&lt;br&gt;- m : int&lt;br&gt;- s : int" style="text;strokeColor=none;fillColor=none;align=left;verticalAlign=top;spacingLeft=4;spacingRight=4;overflow=hidden;rotatable=0;points=[[0,0.5],[1,0.5]];portConstraint=eastwest;whiteSpace=wrap;html=1;" vertex="1" parent="OZhFMw3GiyJWH7PU8Zwi-5">
          <mxGeometry y="26" width="160" height="54" as="geometry" />
        </mxCell>
        <mxCell id="OZhFMw3GiyJWH7PU8Zwi-7" value="" style="line;strokeWidth=1;fillColor=none;align=left;verticalAlign=middle;spacingTop=-1;spacingLeft=3;spacingRight=3;rotatable=0;labelPosition=right;points=[];portConstraint=eastwest;strokeColor=inherit;" vertex="1" parent="OZhFMw3GiyJWH7PU8Zwi-5">
          <mxGeometry y="80" width="160" height="8" as="geometry" />
        </mxCell>
        <mxCell id="OZhFMw3GiyJWH7PU8Zwi-8" value="+ Orario(o:int,m:int,s:int)&lt;br&gt;+ getO() : int&lt;br&gt;+ setO(o:int) : void&lt;br&gt;+ getM() : int&lt;br&gt;+ setM(m:int) : void&lt;br&gt;+ getS() : int&lt;br&gt;+ setS(s:int) : void&lt;br&gt;+ info() : String &quot;oo:mm:ss&quot;&lt;br&gt;- isValida(): boolean&lt;br&gt;+ secondiEquivalenti() : int&lt;br&gt;+ minutiEquivalenti() : int&lt;br&gt;+ oreEquivalenti() : int&lt;br&gt;+ differenzaOrari(o2:int, m2:int, s2:int) : int&lt;br&gt;" style="text;strokeColor=none;fillColor=none;align=left;verticalAlign=top;spacingLeft=4;spacingRight=4;overflow=hidden;rotatable=0;points=[[0,0.5],[1,0.5]];portConstraint=eastwest;whiteSpace=wrap;html=1;" vertex="1" parent="OZhFMw3GiyJWH7PU8Zwi-5">
          <mxGeometry y="88" width="160" height="212" as="geometry" />
        </mxCell>
      </root>
    </mxGraphModel>
  </diagram>
</mxfile>
